<!DOCTYPE svg  PUBLIC '-//W3C//DTD SVG 1.1//EN'
        'http://www.w3.org/Graphics/SVG/1.1/DTD/svg11.dtd'>
<svg height="20"
     style="shape-rendering:geometricPrecision; text-rendering:geometricPrecision; image-rendering:optimizeQuality; fill-rule:evenodd; clip-rule:evenodd"
     version="1.1" viewBox="0 0 4335 4335" width="20" xml:space="preserve" xmlns="http://www.w3.org/2000/svg"
     xmlns:xlink="http://www.w3.org/1999/xlink"><defs><style type="text/css">
  </style></defs>
    <g><path d="M542 119l3251 0c233,0 423,190 423,423l0 3251c0,233 -190,423 -423,423l-3251 0c-233,0 -423,-190 -423,-423l0 -3251c0,-233 190,-423 423,-423zm1257 2849l-948 0 0 -1601 911 0 0 279 -569 0 0 377 529 0 0 278 -529 0 0 388 607 0 0 279zm1686 0l-350 0 -678 -1036c-35,-54 -61,-97 -77,-130l-5 0c6,55 9,140 9,255l0 911 -323 0 0 -1601 372 0 653 1006c43,67 70,109 79,127l5 0c-7,-39 -10,-113 -10,-221l0 -913 324 0 0 1601z"/></g></svg>